<svg xmlns="http://www.w3.org/2000/svg" viewBox="0 0 64 64" width="512px" height="512px"><path fill="#acb7d0" d="M45 61L19 61 22 57 42 57z"/><path fill="#a0aecb" d="M27 51H37V57H27z"/><path fill="#c2cde7" d="M61,51H3c-1.105,0-2-0.895-2-2V9c0-1.105,0.895-2,2-2h58c1.105,0,2,0.895,2,2v40 C63,50.105,62.105,51,61,51z"/><path fill="#cfd9ed" d="M1 45H63V48H1z"/><path fill="#c5e4fa" d="M1 11H63V45H1z"/><path fill="#e3f2ff" d="M45.929 45L62.964 27.964 62.929 11.929 29.857 45zM19.143 45L25.571 45 59.571 11 53.143 11zM14.857 45L48.857 11 43.5 11 9.5 45z"/><path fill="#fff8f8" d="M11.502 17.996L12.74 20.26 15.004 21.498 12.74 22.736 11.502 25 10.264 22.736 8 21.498 10.264 20.26zM53.419 30.162L54.274 31.726 55.838 32.581 54.274 33.436 53.419 35 52.564 33.436 51 32.581 52.564 31.726zM52.648 16.348L53.231 17.413 54.296 17.996 53.231 18.578 52.648 19.644 52.065 18.578 51 17.996 52.065 17.413z"/><path fill="#c2cde7" d="M42.222,24.07l-0.979-4.242c-0.445-1.93-2.429-3.082-4.326-2.513l-2.29,0.687 c-1.714,0.514-3.541,0.514-5.254,0l-2.29-0.687c-1.897-0.569-3.881,0.583-4.326,2.513l-0.979,4.242 C18.249,24.919,16,26.199,16,27.631c0,2.558,7.163,4.632,16,4.632s16-2.074,16-4.632C48,26.199,45.751,24.919,42.222,24.07z"/><path fill="#8b8e98" d="M21.053,31l2.437,5.789C24.061,38.144,25.227,39,26.503,39h1.93c0.638,0,1.221-0.428,1.507-1.106 l0.553-1.315c0.621-1.475,2.392-1.475,3.013,0l0.553,1.315C34.344,38.572,34.927,39,35.565,39h1.932 c1.276,0,2.442-0.856,3.013-2.211L42.947,31C42.947,31,33.105,34,21.053,31z"/><path fill="#c5e4fa" d="M34.695 34.749l3.958-.91c.409-.094.75.33.562.705-.745 1.488-2.478 3.958-4.8 1.011C34.188 35.266 34.337 34.831 34.695 34.749zM29.274 34.753l-3.884-.892c-.418-.096-.748.339-.554.722.743 1.47 2.443 3.854 4.717.976C29.781 35.271 29.632 34.835 29.274 34.753z"/><path fill="#d6dff2" d="M42,24c-4,1-7,2-20,0c0,0-6,2-6,4s8.904,4.508,16.452,4.254C40,32,48,30,48,28S42,24,42,24z"/><path fill="#8d6c9f" d="M61,6H3C1.346,6,0,7.346,0,9v40c0,1.654,1.346,3,3,3h23v4h-2.343c-1.335,0-2.591,0.521-3.535,1.465 l-2.829,2.828c-0.286,0.286-0.372,0.716-0.217,1.09C17.231,61.756,17.596,62,18,62h28c0.404,0,0.769-0.244,0.924-0.617 c0.155-0.374,0.069-0.804-0.217-1.09l-2.829-2.828C42.934,56.521,41.678,56,40.343,56H38v-4h23c1.654,0,3-1.346,3-3V9 C64,7.346,62.654,6,61,6z M40.343,58c0.79,0,1.562,0.32,2.121,0.879L43.585,60H20.415l1.121-1.121 C22.094,58.32,22.867,58,23.657,58H26h12H40.343z M36,56h-8v-4h8V56z M61,50H38H26H3c-0.551,0-1-0.448-1-1v-3h37.083 c0.552,0,1-0.447,1-1s-0.448-1-1-1H2V12h49c0.552,0,1-0.447,1-1s-0.448-1-1-1H2V9c0-0.552,0.449-1,1-1h58c0.551,0,1,0.448,1,1v35 h-3c-0.552,0-1,0.447-1,1s0.448,1,1,1h3v3C62,49.552,61.551,50,61,50z"/><path fill="#fc6d74" d="M44,43c-0.552,0-1,0.447-1,1v2c0,0.553,0.448,1,1,1s1-0.447,1-1v-2C45,43.447,44.552,43,44,43z"/><path fill="#34c695" d="M49,43c-0.552,0-1,0.447-1,1v2c0,0.553,0.448,1,1,1s1-0.447,1-1v-2C50,43.447,49.552,43,49,43z"/><path fill="#5eb0dd" d="M54,43c-0.552,0-1,0.447-1,1v2c0,0.553,0.448,1,1,1s1-0.447,1-1v-2C55,43.447,54.552,43,54,43z"/><path fill="#8d6c9f" d="M60 11c0-.553-.448-1-1-1h-4c-.552 0-1 .447-1 1s.448 1 1 1h4C59.552 12 60 11.553 60 11zM49 27.632c0-1.843-2.05-3.353-5.94-4.383l-.841-3.646c-.274-1.188-1.037-2.221-2.091-2.834-1.055-.611-2.33-.762-3.497-.412l-2.291.687c-1.53.461-3.148.461-4.679 0l-2.29-.687c-1.169-.35-2.443-.2-3.498.412-1.054.613-1.816 1.646-2.091 2.834l-.841 3.646c-3.89 1.03-5.94 2.54-5.94 4.383 0 1.845 2.131 3.251 5.316 4.196l2.252 5.349C23.291 38.892 24.835 40 26.503 40h1.93c1.036 0 1.989-.674 2.428-1.718l.553-1.315c.261-.617.91-.617 1.17 0l.553 1.315C33.576 39.326 34.529 40 35.565 40h1.932c1.668 0 3.212-1.108 3.935-2.823l2.252-5.348C46.868 30.883 49 29.477 49 27.632zM17 27.632c0-.546 1.298-1.66 4.817-2.537 3.326.925 6.73 1.403 10.165 1.403.943 0 1.889-.035 2.835-.105.551-.041.964-.521.923-1.071s-.516-.965-1.071-.923c-3.944.293-7.874-.068-11.696-1.058l.759-3.288c.152-.661.56-1.213 1.146-1.554.377-.219.793-.33 1.214-.33.235 0 .472.034.704.104l2.29.687c1.907.572 3.922.572 5.829 0l2.291-.687c.649-.196 1.331-.115 1.918.226.586.341.994.893 1.146 1.554l1.118 4.845.602.146C45.666 25.927 47 27.075 47 27.632c0 .562-1.114 1.366-3.235 2.075l-1.047.317c-.184.051-.362.103-.557.152-.026.007-.065.016-.094.023-.335.083-.684.163-1.052.239-.002 0-.004.001-.006.001-2.352.486-5.371.823-9.01.823-2.203 0-4.166-.128-5.904-.333-1.538-.203-3.131-.486-4.769-.893C18.495 29.26 17 28.284 17 27.632zM39.588 36.401C39.173 37.388 38.372 38 37.497 38h-1.932c-.229 0-.459-.193-.585-.493l-.554-1.315c-.446-1.06-1.376-1.718-2.428-1.718-1.052 0-1.982.658-2.429 1.718l-.553 1.315C28.891 37.807 28.662 38 28.433 38h-1.93c-.875 0-1.676-.612-2.091-1.599l-1.677-3.983c.595.119 1.211.225 1.845.32 7.464 1.204 13.652.332 16.675-.295L39.588 36.401z"/><path fill="#8d6c9f" d="M37.515,26.083c0.049,0,0.099-0.004,0.149-0.011c0.632-0.095,1.263-0.206,1.891-0.333 c0.541-0.11,0.891-0.639,0.781-1.18s-0.64-0.885-1.179-0.781c-0.594,0.121-1.189,0.227-1.788,0.315 c-0.546,0.082-0.923,0.591-0.842,1.137C36.601,25.727,37.028,26.083,37.515,26.083z"/></svg>